<svg xmlns="http://www.w3.org/2000/svg" viewBox="0 0 512 512" id="online-streaming">
  <path fill="#676e87" d="M444.5 99.75h-377a29.998 29.998 0 0 0-30 30v280h437v-280a29.998 29.998 0 0 0-30-30Zm-77.07 47.18c-.1.79-.2 1.58-.31 2.36-.11.79-.24 1.57-.37 2.35s-.27 1.55-.42 2.32c-.14.71-.28 1.42-.43 2.13-.03.15-.06.29-.1.43-.12.54-.25 1.09-.38 1.63a5.275 5.275 0 0 1-.16.66c-.35 1.43-.74 2.84-1.15 4.24q-.33 1.125-.69 2.22c-.24.74-.48 1.47-.74 2.2-.25.73-.52 1.45-.79 2.17s-.55 1.44-.84 2.15-.58 1.42-.89 2.12c-.25.6-.52 1.19-.79 1.78-.16.34-.31.69-.48 1.03-.2.44-.41.87-.63 1.31a.374.374 0 0 1-.05.11c-.33.66-.66 1.32-1 1.98-.35.68-.71 1.35-1.08 2.02-.35.64-.71 1.28-1.08 1.91-.05.09-.1.18-.16.27-.35.59-.7 1.18-1.05 1.76a106.833 106.833 0 0 1-3.64 5.51c-.48.67-.97 1.35-1.47 2.01q-1.35 1.8-2.78 3.54-2.91 3.51-6.12 6.74-.795.81-1.62 1.59c-.47.45-.94.89-1.41 1.33-1.19 1.1-2.41 2.16-3.66 3.2-.58.49-1.16.96-1.76 1.43-.4.32-.8.64-1.21.95-.43.33-.86.66-1.29.98-.55.41-1.1.81-1.66 1.2-.51.36-1.02.72-1.53 1.07-.34.24-.69.47-1.04.7-.36.24-.73.48-1.1.72-.18.12-.37.24-.55.35-.5.32-1.01.64-1.52.94a2.254 2.254 0 0 1-.26.16c-.62.38-1.25.75-1.88 1.11-.55.32-1.1.63-1.66.93q-.495.285-.99.54c-.3.17-.6.32-.9.48-.4.21-.8.42-1.21.61-.33.17-.66.34-.99.5-.63.31-1.27.61-1.91.9-.42.2-.83.39-1.25.57-.35.16-.71.32-1.06.46q-.495.225-.99.42c-.53.23-1.07.45-1.61.66-.08.03-.17.07-.26.1-.54.22-1.08.42-1.62.62-.31.12-.63.24-.94.35-.36.13-.72.25-1.08.37-.36.13-.71.26-1.07.37-.64.22-1.28.42-1.92.62-.55.17-1.1.34-1.65.5-.39.12-.78.23-1.18.33-.59.17-1.18.33-1.78.48q-1.155.3-2.34.57c-.54.13-1.08.25-1.63.36-.38.09-.77.17-1.16.24a93.46 93.46 0 0 1-9.24 1.39l-1.26.12c-.45.04-.91.08-1.37.11q-3.6.27-7.27.27-3.675 0-7.27-.27c-.46-.03-.92-.07-1.37-.11l-1.26-.12c-3.13-.31-6.21-.78-9.24-1.39-.39-.07-.78-.15-1.16-.24-.55-.11-1.09-.23-1.63-.36q-1.185-.27-2.34-.57c-.6-.15-1.19-.31-1.78-.48-.4-.1-.79-.21-1.18-.33-.55-.16-1.1-.33-1.65-.5-.64-.2-1.28-.4-1.92-.62-.36-.11-.71-.24-1.07-.37-.36-.12-.72-.24-1.08-.37-.31-.11-.63-.23-.94-.35-.54-.2-1.08-.4-1.62-.62-.09-.03-.18-.07-.26-.1a45.3 45.3 0 0 1-1.61-.66q-.495-.195-.99-.42c-.35-.14-.71-.3-1.06-.46-.42-.18-.83-.37-1.25-.57-.64-.29-1.28-.59-1.91-.9-.33-.16-.66-.33-.99-.5-.41-.19-.81-.4-1.21-.61-.3-.16-.6-.31-.9-.48q-.495-.255-.99-.54c-.56-.3-1.11-.61-1.66-.93-.63-.36-1.26-.73-1.88-1.11a2.254 2.254 0 0 1-.26-.16c-.51-.3-1.02-.62-1.52-.94-.18-.11-.37-.23-.55-.35-.37-.24-.74-.48-1.1-.72-.35-.23-.7-.46-1.04-.7-.51-.35-1.02-.71-1.53-1.07-.56-.39-1.11-.79-1.66-1.2a106.873 106.873 0 0 1-2.5-1.93c-.6-.47-1.18-.94-1.76-1.43-1.25-1.04-2.47-2.1-3.66-3.2-.47-.44-.94-.88-1.41-1.33q-.825-.78-1.62-1.59-3.21-3.225-6.12-6.74c-.95-1.16-1.87-2.34-2.78-3.54-.5-.66-.99-1.34-1.47-2.01a106.874 106.874 0 0 1-3.64-5.51c-.35-.58-.7-1.17-1.05-1.76-.06-.09-.11-.18-.16-.27-.37-.63-.73-1.27-1.08-1.91-.37-.67-.73-1.34-1.08-2.02-.34-.66-.67-1.32-1-1.98a.374.374 0 0 1-.05-.11c-.22-.44-.43-.87-.63-1.31-.17-.34-.32-.69-.48-1.03-.27-.59-.54-1.18-.79-1.78-.31-.7-.6-1.41-.89-2.12s-.57-1.43-.84-2.15-.54-1.44-.79-2.17c-.26-.73-.5-1.46-.74-2.2q-.36-1.095-.69-2.22c-.41-1.4-.8-2.81-1.15-4.24a5.275 5.275 0 0 1-.16-.66c-.13-.54-.26-1.09-.38-1.63-.04-.14-.07-.28-.1-.43-.15-.71-.29-1.42-.43-2.13-.15-.77-.29-1.54-.42-2.32-.13-.78-.26-1.56-.37-2.35-.11-.78-.21-1.57-.31-2.36q-.42-3.555-.58-7.18h194.02q-.165 3.63-.58 7.18Z"></path>
  <path fill="#d9f0ff" d="M434.5 144.75v220a5.002 5.002 0 0 1-5 5h-347a5.002 5.002 0 0 1-5-5v-220a5.002 5.002 0 0 1 5-5h91.49a97.109 97.109 0 0 0 194.02 0h61.49a5.002 5.002 0 0 1 5 5Z"></path>
  <path fill="#595f74" d="M319.72 409.75H499.5a5 5 0 0 1 5 5v29a30 30 0 0 1-30 30h-437a30 30 0 0 1-30-30v-29a5 5 0 0 1 5-5h179.78"></path>
  <path fill="#f7f7f7" d="m312.22 409.75-11.053 25.055a15 15 0 0 1-13.723 8.945h-62.888a15 15 0 0 1-13.723-8.945l-11.054-25.055"></path>
  <path fill="#b3e0ff" d="M368.01 139.75c-.09 2.42-.29 4.81-.58 7.18-.1.79-.2 1.58-.31 2.36-.11.79-.24 1.57-.37 2.35s-.27 1.55-.42 2.32c-.14.71-.28 1.42-.43 2.13-.03.15-.06.29-.1.43-.12.54-.25 1.09-.38 1.63a5.275 5.275 0 0 1-.16.66 75.7 75.7 0 0 1-1.15 4.24q-.33 1.125-.69 2.22c-.24.74-.48 1.47-.74 2.2-.25.73-.52 1.45-.79 2.17s-.55 1.44-.84 2.15-.58 1.42-.89 2.12c-.25.6-.52 1.19-.79 1.78-.15.34-.31.69-.48 1.03-.2.44-.41.87-.63 1.31a.374.374 0 0 1-.05.11c-.33.66-.66 1.32-1 1.98-.35.68-.71 1.35-1.08 2.02-.35.64-.71 1.28-1.08 1.91-.05.09-.1.18-.16.27-.35.59-.7 1.18-1.05 1.76-.4.65-.8 1.29-1.22 1.93-.77 1.21-1.58 2.4-2.42 3.58-.48.67-.97 1.35-1.47 2.01q-1.35 1.8-2.78 3.54-2.91 3.51-6.12 6.74-.795.81-1.62 1.59c-.47.45-.94.89-1.41 1.33-1.19 1.1-2.41 2.16-3.66 3.2-.58.49-1.16.96-1.76 1.43-.4.32-.8.64-1.21.95-.43.33-.86.66-1.29.98-.54.41-1.1.81-1.66 1.2-.51.36-1.02.72-1.53 1.07-.34.24-.69.47-1.04.7-.36.25-.73.49-1.1.72-.18.12-.37.24-.55.35-.5.32-1.01.64-1.52.94a2.254 2.254 0 0 1-.26.16c-.62.38-1.24.75-1.88 1.11-.55.32-1.1.63-1.66.93q-.495.285-.99.54c-.3.17-.6.32-.9.48-.4.21-.8.42-1.21.61-.33.17-.66.34-.99.5-.63.31-1.27.61-1.91.9-.42.2-.83.39-1.25.57-.35.16-.7.31-1.06.46q-.495.225-.99.42c-.53.23-1.07.45-1.61.66-.08.03-.17.07-.26.1-.54.22-1.08.42-1.62.62-.31.12-.63.24-.94.35-.36.13-.72.25-1.08.37-.36.13-.71.26-1.07.37-.64.22-1.28.42-1.92.62-.55.17-1.1.34-1.65.5-.39.12-.78.23-1.18.33-.59.17-1.18.33-1.78.48q-1.155.3-2.34.57c-.54.13-1.08.25-1.63.36-.38.09-.77.17-1.16.24a93.46 93.46 0 0 1-9.24 1.39l-1.26.12c-.45.04-.91.08-1.37.11q-3.6.27-7.27.27-3.675 0-7.27-.27c-.46-.03-.92-.07-1.37-.11l-1.26-.12c-3.13-.31-6.21-.78-9.24-1.39-.39-.07-.78-.15-1.16-.24-.55-.11-1.09-.23-1.63-.36q-1.185-.27-2.34-.57c-.6-.15-1.19-.31-1.78-.48-.4-.1-.79-.21-1.18-.33-.55-.16-1.1-.33-1.65-.5-.64-.2-1.28-.4-1.92-.62-.36-.11-.71-.24-1.07-.37-.36-.12-.72-.24-1.08-.37-.31-.11-.63-.23-.94-.35-.54-.2-1.08-.4-1.62-.62-.09-.03-.18-.07-.26-.1a45.3 45.3 0 0 1-1.61-.66q-.495-.195-.99-.42c-.36-.15-.71-.3-1.06-.46-.42-.18-.83-.37-1.25-.57-.64-.29-1.28-.59-1.91-.9-.33-.16-.66-.33-.99-.5-.41-.19-.81-.4-1.21-.61-.3-.16-.6-.31-.9-.48q-.495-.255-.99-.54c-.56-.3-1.11-.61-1.66-.93-.64-.36-1.26-.73-1.88-1.11a2.254 2.254 0 0 1-.26-.16c-.51-.3-1.02-.62-1.52-.94-.18-.11-.37-.23-.55-.35-.37-.23-.74-.47-1.1-.72-.35-.23-.7-.46-1.04-.7-.51-.35-1.02-.71-1.53-1.07-.56-.39-1.12-.79-1.66-1.2a106.873 106.873 0 0 1-2.5-1.93c-.6-.47-1.18-.94-1.76-1.43-1.25-1.04-2.47-2.1-3.66-3.2-.47-.44-.94-.88-1.41-1.33q-.825-.78-1.62-1.59-3.21-3.225-6.12-6.74c-.95-1.16-1.87-2.34-2.78-3.54-.5-.66-.99-1.34-1.47-2.01-.84-1.18-1.65-2.37-2.42-3.58-.42-.64-.82-1.28-1.22-1.93-.35-.58-.7-1.17-1.05-1.76-.06-.09-.11-.18-.16-.27-.37-.63-.73-1.27-1.08-1.91-.37-.67-.73-1.34-1.08-2.02-.34-.66-.67-1.32-1-1.98a.374.374 0 0 1-.05-.11c-.22-.44-.43-.87-.63-1.31-.17-.34-.33-.69-.48-1.03-.27-.59-.54-1.18-.79-1.78-.31-.7-.6-1.41-.89-2.12s-.57-1.43-.84-2.15-.54-1.44-.79-2.17c-.26-.73-.5-1.46-.74-2.2q-.36-1.095-.69-2.22c-.42-1.4-.81-2.81-1.15-4.24a5.275 5.275 0 0 1-.16-.66c-.13-.54-.26-1.09-.38-1.63-.04-.14-.07-.28-.1-.43-.15-.71-.29-1.42-.43-2.13-.15-.77-.29-1.54-.42-2.32-.13-.78-.26-1.56-.37-2.35-.11-.78-.21-1.57-.31-2.36-.29-2.37-.49-4.76-.58-7.18-.08-1.45-.11-2.91-.11-4.38a96.855 96.855 0 0 1 6.74-35.62"></path>
  <path fill="#595f74" d="M368.12 135.37c0 1.47-.03 2.93-.11 4.38H173.99c-.08-1.45-.11-2.91-.11-4.38a96.855 96.855 0 0 1 6.74-35.62h180.76a96.855 96.855 0 0 1 6.74 35.62Z"></path>
  <circle cx="256" cy="135.366" r="97.116" fill="#f66"></circle>
  <path fill="#ff4e4e" d="M256 38.25a97.85 97.85 0 0 0-15 1.154 97.13 97.13 0 0 1 0 191.925A97.122 97.122 0 1 0 256 38.25Z"></path>
  <path fill="#fff" d="m241.564 96.119 53.254 35.66a4.316 4.316 0 0 1 0 7.174l-53.254 35.661a4.316 4.316 0 0 1-6.718-3.586V99.705a4.316 4.316 0 0 1 6.718-3.586Z"></path>
  <path fill="#ff8585" d="M389.5 327.25h-267a7.5 7.5 0 0 1 0-15h267a7.5 7.5 0 0 1 0 15Z"></path>
  <circle cx="199" cy="319.75" r="22.5" fill="#676e87"></circle>
</svg>
